<svg xmlns="http://www.w3.org/2000/svg" viewBox="0 0 256 256" role="img" aria-label="沉浸歌词">
  <defs>
    <linearGradient id="scene" x1="28" y1="18" x2="228" y2="238" gradientUnits="userSpaceOnUse">
      <stop offset="0" stop-color="#f8fcff"/>
      <stop offset=".42" stop-color="#dff6ff"/>
      <stop offset="1" stop-color="#b8e5ff"/>
    </linearGradient>
    <radialGradient id="glow" cx="34%" cy="25%" r="72%">
      <stop offset="0" stop-color="#ffffff" stop-opacity=".92"/>
      <stop offset=".5" stop-color="#bff1ff" stop-opacity=".5"/>
      <stop offset="1" stop-color="#63c7ff" stop-opacity="0"/>
    </radialGradient>
    <linearGradient id="glass" x1="78" y1="38" x2="183" y2="219" gradientUnits="userSpaceOnUse">
      <stop offset="0" stop-color="#ffffff" stop-opacity=".94"/>
      <stop offset=".32" stop-color="#ecfbff" stop-opacity=".54"/>
      <stop offset=".64" stop-color="#98e4ff" stop-opacity=".42"/>
      <stop offset="1" stop-color="#ffffff" stop-opacity=".72"/>
    </linearGradient>
    <linearGradient id="edge" x1="86" y1="35" x2="183" y2="213" gradientUnits="userSpaceOnUse">
      <stop offset="0" stop-color="#ffffff"/>
      <stop offset=".42" stop-color="#d6f8ff" stop-opacity=".82"/>
      <stop offset="1" stop-color="#79d6ff"/>
    </linearGradient>
    <filter id="softShadow" x="-30%" y="-30%" width="160%" height="170%">
      <feDropShadow dx="0" dy="18" stdDeviation="18" flood-color="#1780b8" flood-opacity=".26"/>
      <feDropShadow dx="0" dy="4" stdDeviation="7" flood-color="#ffffff" flood-opacity=".34"/>
    </filter>
    <filter id="innerLight">
      <feGaussianBlur in="SourceAlpha" stdDeviation="2" result="blur"/>
      <feOffset dx="-2" dy="-2"/>
      <feComposite operator="out" in2="SourceAlpha"/>
      <feColorMatrix values="0 0 0 0 1 0 0 0 0 1 0 0 0 0 1 0 0 0 .72 0"/>
      <feBlend in2="SourceGraphic"/>
    </filter>
  </defs>
  <rect width="256" height="256" rx="58" fill="url(#scene)"/>
  <path d="M22 177c44-42 77-29 118-53 31-18 49-54 94-64v116c0 32-26 58-58 58H80c-32 0-58-26-58-58Z" fill="#ffffff" opacity=".34"/>
  <path d="M177 38c-18 16-36 25-57 28-13 2-22 13-22 26v70c-7-5-17-7-28-4-20 6-33 23-29 39 4 17 24 25 45 19 18-5 30-20 30-35V103c0-7 5-13 12-14 16-3 31-8 45-18v83c-7-5-18-6-29-3-20 6-33 24-29 40 4 16 25 24 45 18 18-5 30-20 30-35V47c0-7-8-11-13-9Z" fill="url(#glass)" stroke="url(#edge)" stroke-width="7" stroke-linejoin="round" filter="url(#softShadow)"/>
  <path d="M116 99c24-5 44-13 62-29" fill="none" stroke="#ffffff" stroke-opacity=".7" stroke-width="5" stroke-linecap="round"/>
  <path d="M95 164c-13-8-31-3-40 9" fill="none" stroke="#ffffff" stroke-opacity=".45" stroke-width="4" stroke-linecap="round" filter="url(#innerLight)"/>
  <path d="M169 157c-13-7-30-2-40 9" fill="none" stroke="#ffffff" stroke-opacity=".42" stroke-width="4" stroke-linecap="round"/>
</svg>
